<?xml version="1.0" standalone="no"?>
<!DOCTYPE svg PUBLIC "-//W3C//DTD SVG 20010904//EN"
 "http://www.w3.org/TR/2001/REC-SVG-20010904/DTD/svg10.dtd">
<svg version="1.0" xmlns="http://www.w3.org/2000/svg"
 width="720.000000pt" height="720.000000pt" viewBox="0 0 720.000000 720.000000"
 preserveAspectRatio="xMidYMid meet">
<metadata>
Created by potrace 1.11, written by Peter Selinger 2001-2013
</metadata>
<g transform="translate(0.000000,720.000000) scale(0.100000,-0.100000)"
fill="#000000" stroke="none">
<path d="M3381 7069 c-655 -41 -1292 -269 -1812 -649 -1120 -815 -1648 -2172
-1373 -3524 241 -1187 1111 -2180 2260 -2579 842 -293 1780 -250 2585 119 862
394 1533 1130 1842 2020 257 738 257 1550 0 2288 -309 890 -980 1626 -1842
2020 -387 177 -797 278 -1246 306 -176 11 -231 11 -414 -1z m239 -469 c13 0
15 -242 12 -2130 l-2 -2130 1475 0 1476 0 -3 -52 -3 -53 -1464 -3 c-1157 -2
-1467 -5 -1473 -15 -9 -14 -11 -208 -2 -231 6 -14 75 -16 680 -16 465 0 674
-3 674 -11 0 -10 -36 -81 -53 -103 -4 -6 -26 -42 -49 -81 -23 -38 -45 -71 -50
-73 -4 -2 -8 -8 -8 -14 0 -6 -10 -23 -22 -38 -13 -16 -41 -53 -63 -83 -22 -31
-49 -58 -60 -61 -11 -3 -495 -6 -1077 -6 l-1056 0 -34 39 c-19 22 -52 66 -73
98 -22 32 -43 60 -47 61 -5 2 -8 10 -8 18 0 8 -4 14 -10 14 -5 0 -10 5 -10 11
0 6 -13 29 -29 52 -37 55 -91 153 -91 166 0 8 195 11 630 11 l630 0 0 130 0
130 -1437 2 -1438 3 0 50 0 50 1438 3 1437 2 0 2129 0 2130 28 4 c15 2 36 3
47 1 11 -2 27 -4 35 -4z m350 -430 c57 -363 183 -810 345 -1220 225 -572 514
-1110 935 -1740 107 -161 150 -230 150 -245 0 -3 -4 -5 -10 -5 -5 0 -54 -29
-108 -65 -121 -79 -333 -182 -462 -225 -169 -56 -308 -81 -490 -87 -145 -5
-291 5 -307 21 -2 2 -13 37 -24 78 -43 167 -79 506 -99 931 -13 282 -13 1404
0 1827 17 564 34 926 41 895 5 -16 18 -91 29 -165z m-651 -1372 c-35 -114
-107 -411 -133 -548 -57 -303 -76 -495 -76 -765 0 -340 50 -606 150 -805 l30
-60 -27 0 c-154 1 -493 63 -667 122 -159 53 -336 166 -336 213 0 44 31 202 60
302 121 418 411 913 806 1374 132 155 197 227 206 228 3 1 -3 -27 -13 -61z"/>
</g>
</svg>
